<?xml version="1.0" encoding="UTF-8" ?>
<!DOCTYPE svg PUBLIC "-//W3C//DTD SVG 1.1//EN" "http://www.w3.org/Graphics/SVG/1.1/DTD/svg11.dtd">
<svg width="512pt" height="512pt" viewBox="0 0 512 512" version="1.1" xmlns="http://www.w3.org/2000/svg">
<g id="#000000ff">
<path fill="#000000" stroke="#000000" stroke-width="0.09375" opacity="1.00" d=" M 207.31 0.00 L 210.05 0.00 C 217.99 1.13 224.31 8.94 223.00 17.00 C 219.56 37.31 215.83 57.59 212.34 77.90 C 217.19 81.21 221.38 85.34 225.74 89.27 C 253.52 114.46 281.28 139.69 309.07 164.88 C 316.82 171.77 321.80 181.71 322.47 192.08 C 322.97 198.17 321.51 204.16 320.50 210.11 C 309.26 273.91 297.99 337.71 286.76 401.51 C 285.82 407.79 283.93 414.02 280.40 419.36 C 272.05 432.60 255.47 439.92 240.06 437.07 C 174.99 425.61 109.92 414.12 44.85 402.65 C 36.95 401.08 28.60 400.57 21.41 396.58 C 9.14 390.28 0.89 377.28 0.00 363.56 L 0.00 358.56 C 2.12 344.73 4.79 331.00 7.15 317.21 C 16.86 262.07 26.59 206.94 36.31 151.81 C 38.43 138.70 47.58 127.00 59.82 121.83 C 98.24 106.27 136.69 90.78 175.10 75.20 C 177.60 74.20 180.17 73.42 182.76 72.71 C 186.36 52.48 189.86 32.24 193.50 12.03 C 194.73 5.48 200.70 0.42 207.31 0.00 M 170.01 156.99 C 169.03 161.42 168.43 165.93 167.56 170.38 C 161.57 170.68 155.49 171.39 149.94 173.80 C 131.94 181.01 120.12 200.67 121.62 219.91 C 122.22 227.54 125.07 235.09 130.19 240.84 C 136.49 247.93 144.15 253.63 151.95 258.96 C 147.83 282.35 143.71 305.74 139.58 329.13 C 130.03 327.34 121.71 321.87 114.81 315.22 C 111.37 311.61 105.26 311.04 101.38 314.26 C 97.10 317.42 96.26 324.18 99.71 328.26 C 109.50 338.47 122.12 346.11 136.09 348.86 C 135.50 354.89 132.91 360.91 133.98 366.97 C 135.80 374.52 146.84 376.68 151.37 370.36 C 154.92 364.92 154.14 357.90 155.95 351.83 C 159.23 351.07 162.81 351.43 166.14 350.55 C 188.60 346.41 206.84 326.70 209.78 304.14 C 211.91 290.03 207.03 275.17 197.02 265.02 C 190.58 258.11 181.96 253.96 173.97 249.18 C 177.34 230.30 180.62 211.41 183.99 192.53 C 190.35 194.75 195.22 199.51 199.77 204.27 C 204.22 208.99 212.89 207.56 215.63 201.70 C 217.91 197.49 216.43 192.15 212.89 189.13 C 206.06 181.55 197.40 175.52 187.53 172.70 C 188.10 168.43 189.13 164.22 189.61 159.94 C 190.16 154.89 186.14 149.96 181.13 149.36 C 176.18 148.51 170.95 152.04 170.01 156.99 Z" />
<path fill="#000000" stroke="#000000" stroke-width="0.09375" opacity="1.00" d=" M 292.55 0.00 L 295.52 0.00 C 299.88 0.54 304.12 2.71 306.62 6.41 C 309.10 9.75 309.41 14.03 310.05 18.00 C 312.53 33.63 315.05 49.26 317.53 64.90 C 320.14 65.78 322.73 66.72 325.28 67.80 C 360.54 82.81 395.81 97.81 431.07 112.83 C 435.46 114.72 439.98 116.41 444.01 119.05 C 452.42 124.53 458.63 133.30 460.93 143.08 C 462.13 148.41 462.87 153.82 463.88 159.18 C 479.89 250.35 496.17 341.46 512.00 432.66 L 512.00 437.49 C 511.23 455.31 497.41 471.56 479.79 474.74 C 408.58 487.36 337.29 499.64 266.03 512.00 L 263.40 512.00 C 249.87 511.36 236.91 503.50 230.35 491.62 C 225.52 483.42 225.13 473.70 223.27 464.59 C 228.19 465.42 233.08 466.42 238.04 467.06 C 252.91 468.98 268.39 465.96 281.42 458.52 C 295.98 450.28 307.37 436.64 312.83 420.83 C 315.24 414.09 316.23 406.96 317.49 399.95 C 328.72 336.27 339.94 272.58 351.18 208.89 C 356.31 184.51 347.21 157.94 328.25 141.78 C 307.90 123.31 287.55 104.85 267.21 86.37 C 274.00 80.50 279.93 73.50 287.72 68.89 C 285.15 51.53 282.15 34.23 279.52 16.87 C 278.29 8.84 284.64 1.08 292.55 0.00 Z" />
<path fill="#000000" stroke="#000000" stroke-width="0.09375" opacity="1.00" d=" M 142.16 221.86 C 138.73 207.87 149.53 192.08 163.98 190.62 C 161.29 206.14 158.52 221.65 155.80 237.16 C 150.58 232.82 144.20 228.70 142.16 221.86 Z" />
<path fill="#000000" stroke="#000000" stroke-width="0.09375" opacity="1.00" d=" M 170.24 270.27 C 178.86 274.44 187.22 281.15 189.40 290.94 C 193.81 309.75 178.48 329.60 159.51 331.40 C 163.04 311.01 166.72 290.66 170.24 270.27 Z" />
</g>
</svg>
