<?xml version="1.0" standalone="no"?>
<!DOCTYPE svg PUBLIC "-//W3C//DTD SVG 20010904//EN"
 "http://www.w3.org/TR/2001/REC-SVG-20010904/DTD/svg10.dtd">
<svg version="1.0" xmlns="http://www.w3.org/2000/svg"
 width="512.000000pt" height="512.000000pt" viewBox="0 0 512.000000 512.000000"
 preserveAspectRatio="xMidYMid meet">

<g transform="translate(0.000000,512.000000) scale(0.100000,-0.100000)"
fill="#000000" stroke="none">
<path d="M2467 5000 c-53 -14 -130 -55 -173 -92 -20 -18 -62 -70 -94 -118 -31
-47 -76 -102 -98 -122 -113 -102 -256 -126 -423 -71 -252 83 -479 -24 -550
-259 -19 -61 -20 -81 -13 -157 22 -218 2 -309 -93 -412 -44 -47 -75 -69 -142
-100 -47 -22 -102 -48 -121 -57 -54 -26 -138 -115 -166 -175 -37 -81 -48 -157
-34 -235 18 -107 52 -164 155 -266 104 -102 138 -158 156 -260 17 -92 2 -162
-63 -300 l-53 -111 0 -105 c0 -95 3 -111 28 -162 51 -104 147 -188 250 -219
18 -6 86 -14 151 -19 107 -8 127 -12 192 -44 124 -62 186 -148 224 -312 11
-47 32 -110 47 -140 33 -68 116 -147 190 -182 52 -24 69 -27 168 -27 128 1
158 11 270 95 118 89 162 105 285 105 123 0 167 -16 285 -105 112 -84 142 -94
270 -95 99 0 116 3 168 27 74 35 157 114 189 180 15 29 38 100 52 157 39 158
104 243 232 303 53 25 82 31 181 38 180 13 272 55 355 165 57 75 81 159 76
259 -4 74 -10 94 -56 193 -65 137 -80 208 -63 299 18 102 52 158 156 260 103
102 139 162 156 262 22 123 -29 272 -120 354 -49 45 -59 50 -202 117 -105 49
-184 128 -220 218 -20 51 -23 72 -20 168 7 212 5 258 -16 311 -85 219 -300
310 -545 230 -75 -24 -99 -28 -175 -24 -151 6 -238 61 -343 218 -69 102 -113
143 -197 182 -70 33 -186 45 -256 28z m273 -725 c197 -30 359 -92 520 -199
531 -354 714 -1055 423 -1624 -176 -346 -520 -600 -903 -668 -111 -20 -330
-20 -440 0 -248 44 -471 159 -656 338 -579 559 -493 1508 178 1955 260 173
577 245 878 198z"/>
<path d="M2440 4134 c-14 -2 -52 -9 -85 -15 -353 -61 -665 -311 -818 -657 -72
-162 -104 -408 -77 -594 68 -466 429 -844 892 -933 108 -21 309 -21 414 0 404
78 728 366 852 755 42 133 56 239 49 389 -22 508 -378 927 -882 1037 -68 15
-295 27 -345 18z m717 -565 c82 -40 119 -156 75 -235 -34 -61 -705 -833 -738
-849 -43 -20 -122 -19 -161 3 -37 19 -425 447 -449 494 -23 44 -15 134 15 176
47 67 146 91 219 53 21 -11 90 -79 162 -160 69 -77 128 -141 131 -141 4 0 130
144 280 320 286 335 314 360 388 360 19 0 54 -9 78 -21z"/>
<path d="M1247 1568 c-8 -18 -107 -253 -221 -521 -114 -269 -205 -491 -202
-494 2 -3 159 46 348 109 l344 115 154 -323 c85 -178 159 -325 163 -326 8 -3
347 783 342 790 -2 2 -20 -1 -42 -7 -21 -6 -79 -11 -130 -11 -180 0 -316 66
-434 210 -54 67 -82 131 -113 256 -27 107 -59 163 -114 198 -64 41 -79 42 -95
4z"/>
<path d="M3820 1589 c-82 -33 -128 -101 -160 -239 -52 -223 -181 -367 -385
-430 -79 -24 -215 -29 -285 -10 -23 6 -43 10 -45 8 -5 -7 333 -789 341 -789 5
1 78 146 163 324 l155 323 344 -113 c190 -63 347 -112 349 -109 7 6 -433 1040
-443 1042 -5 2 -20 -2 -34 -7z"/>
</g>
</svg>
