<?xml version="1.0" encoding="UTF-8" ?>
<!DOCTYPE svg PUBLIC "-//W3C//DTD SVG 1.1//EN" "http://www.w3.org/Graphics/SVG/1.1/DTD/svg11.dtd">
<svg width="512pt" height="512pt" viewBox="0 0 512 512" version="1.1" xmlns="http://www.w3.org/2000/svg">
<g id="#000000ff">
<path fill="#000000" stroke="#000000" stroke-width="0.09375" opacity="1.00" d=" M 222.26 0.00 L 225.18 0.00 C 233.07 1.22 239.31 9.00 238.00 17.02 C 235.50 32.19 232.57 47.28 230.12 62.46 C 235.64 65.04 240.56 68.72 245.00 72.86 C 253.32 65.80 260.71 57.33 270.76 52.63 C 268.75 40.71 266.49 28.84 264.53 16.91 C 263.26 8.88 269.60 1.13 277.49 0.00 L 280.59 0.00 C 284.94 0.56 289.15 2.73 291.63 6.42 C 293.91 9.49 294.33 13.38 294.97 17.03 C 296.75 27.15 298.51 37.27 300.34 47.38 C 305.60 48.03 310.81 49.21 315.72 51.24 C 352.69 66.34 389.67 81.43 426.65 96.54 C 432.11 98.67 437.44 101.24 442.12 104.81 C 453.70 113.36 461.42 126.68 463.54 140.88 C 479.63 232.82 496.16 324.68 512.00 416.66 L 512.00 423.38 C 511.06 436.90 505.33 450.11 495.59 459.60 C 487.62 467.62 477.06 472.87 465.95 474.78 C 399.33 486.59 332.70 498.31 266.07 510.06 C 261.32 510.88 256.56 511.77 251.74 512.00 L 247.49 512.00 C 233.98 511.14 220.78 505.43 211.25 495.76 C 203.47 488.01 198.13 477.88 196.15 467.08 C 194.54 458.45 193.08 449.79 191.55 441.15 C 145.35 432.93 99.13 424.83 52.92 416.68 C 45.78 415.48 38.51 414.25 31.92 411.06 C 13.79 402.87 1.30 384.24 0.00 364.45 L 0.00 357.03 C 11.93 287.94 24.32 218.93 36.42 149.86 C 39.18 131.54 51.87 115.13 68.99 108.00 C 107.42 92.42 145.90 76.94 184.34 61.35 C 188.76 59.53 193.37 58.15 198.12 57.54 C 199.02 57.23 200.79 57.53 200.70 56.06 C 202.98 43.33 205.19 30.59 207.44 17.86 C 208.15 14.06 208.43 9.98 210.72 6.72 C 213.25 2.82 217.67 0.42 222.26 0.00 M 282.36 80.40 C 276.78 83.91 272.35 88.91 267.33 93.15 C 289.44 113.21 311.54 133.28 333.66 153.33 C 347.99 165.62 355.17 185.55 351.77 204.15 C 339.79 272.10 327.87 340.06 315.80 407.99 C 312.11 428.68 295.43 446.22 275.00 451.05 C 267.14 453.06 258.87 453.06 250.92 451.59 C 241.61 449.91 232.29 448.32 222.98 446.65 C 224.12 452.59 224.85 458.62 226.34 464.48 C 229.75 476.15 242.53 483.96 254.48 481.61 C 321.28 469.84 388.09 458.10 454.89 446.29 C 459.29 445.46 463.87 445.03 467.93 442.98 C 475.25 439.46 480.59 432.17 481.70 424.12 C 482.45 419.67 481.45 415.21 480.67 410.84 C 465.03 322.20 449.42 233.55 433.77 144.91 C 432.78 139.07 429.81 133.54 425.24 129.74 C 420.39 125.64 414.09 124.07 408.40 121.51 C 373.91 107.45 339.46 93.30 304.96 79.26 C 297.79 76.09 289.16 76.47 282.36 80.40 M 81.23 135.40 C 72.35 138.88 66.47 147.72 65.60 157.08 C 53.89 223.69 42.09 290.28 30.40 356.89 C 27.79 369.78 37.22 383.46 50.15 385.70 C 116.08 397.32 182.00 408.96 247.92 420.60 C 254.20 421.53 260.59 423.60 266.96 422.11 C 276.76 420.18 284.84 411.82 286.44 401.95 C 298.33 334.63 310.18 267.31 322.05 199.99 C 323.20 194.12 322.34 187.85 319.36 182.64 C 317.32 178.84 314.03 175.99 310.87 173.16 C 282.03 147.01 253.20 120.83 224.36 94.68 C 223.15 101.16 222.20 107.68 220.84 114.13 C 219.27 121.09 212.16 126.19 205.06 125.43 C 196.95 124.96 190.36 116.93 191.45 108.89 C 192.43 102.40 193.74 95.96 194.80 89.48 C 156.95 104.82 119.06 120.04 81.23 135.40 Z" />
<path fill="#000000" stroke="#000000" stroke-width="0.09375" opacity="1.00" d=" M 185.01 156.95 C 185.99 152.01 191.22 148.49 196.16 149.36 C 201.19 149.98 205.18 154.93 204.61 159.98 C 204.13 164.26 203.07 168.45 202.54 172.73 C 212.40 175.50 221.04 181.54 227.85 189.10 C 231.40 192.10 232.91 197.42 230.66 201.64 C 227.95 207.56 219.19 209.01 214.74 204.24 C 210.21 199.48 205.33 194.75 198.98 192.53 C 195.62 211.40 192.36 230.29 188.97 249.15 C 196.31 253.63 204.25 257.38 210.46 263.47 C 219.38 271.85 224.96 283.77 225.22 296.05 C 225.78 316.42 213.55 336.25 195.52 345.52 C 187.95 349.56 179.40 351.37 170.87 351.67 C 170.03 356.61 169.24 361.56 168.25 366.47 C 167.20 371.42 161.93 374.95 156.95 374.01 C 151.91 373.30 147.96 368.24 148.65 363.17 C 149.31 358.37 150.32 353.63 151.09 348.86 C 137.13 346.12 124.55 338.49 114.75 328.32 C 110.89 323.86 112.36 316.27 117.52 313.48 C 121.63 310.94 127.13 312.17 130.30 315.64 C 137.04 322.15 145.26 327.39 154.59 329.10 C 158.71 305.72 162.83 282.35 166.95 258.97 C 158.94 253.51 151.09 247.64 144.71 240.29 C 139.67 234.36 136.97 226.65 136.55 218.93 C 135.53 200.00 147.24 180.90 164.93 173.81 C 170.49 171.39 176.56 170.67 182.56 170.38 C 183.42 165.91 184.04 161.40 185.01 156.95 M 157.16 221.85 C 159.19 228.71 165.59 232.82 170.80 237.17 C 173.51 221.65 176.30 206.14 178.98 190.62 C 164.53 192.08 153.73 207.86 157.16 221.85 M 185.26 270.25 C 181.70 290.64 178.07 311.01 174.50 331.39 C 193.44 329.62 208.76 309.81 204.42 291.03 C 202.28 281.18 193.87 274.49 185.26 270.25 Z" />
</g>
</svg>
