<?xml version="1.0" encoding="UTF-8" ?>
<!DOCTYPE svg PUBLIC "-//W3C//DTD SVG 1.1//EN" "http://www.w3.org/Graphics/SVG/1.1/DTD/svg11.dtd">
<svg width="512pt" height="512pt" viewBox="0 0 512 512" version="1.1" xmlns="http://www.w3.org/2000/svg">
<g id="#000000ff">
<path fill="#000000" stroke="#000000" stroke-width="0.09375" opacity="1.00" d=" M 9.59 31.63 C 17.07 22.92 28.53 17.89 40.00 18.20 C 155.01 18.21 270.02 18.18 385.03 18.21 C 394.96 18.16 404.83 22.09 411.98 29.00 C 419.57 36.18 424.02 46.53 424.04 56.98 C 424.10 90.34 424.04 123.70 424.07 157.06 C 442.05 157.09 460.03 157.04 478.01 157.08 C 487.59 157.08 497.04 161.42 503.35 168.61 C 508.23 173.96 510.93 180.93 512.00 188.02 L 512.00 401.96 C 510.73 415.86 500.58 428.51 487.01 432.12 C 479.08 434.30 470.79 433.07 462.69 433.43 C 462.67 448.30 462.76 463.18 462.66 478.06 C 462.66 484.94 457.69 491.41 451.05 493.19 C 446.16 494.64 440.71 493.41 436.73 490.30 C 419.77 477.29 402.84 464.22 385.89 451.19 C 378.08 445.39 370.63 439.07 362.63 433.56 C 313.10 433.19 263.52 433.51 213.97 433.40 C 206.43 433.23 198.61 434.19 191.37 431.55 C 178.48 427.25 168.86 414.68 168.31 401.07 C 168.09 390.13 168.29 379.18 168.21 368.24 C 141.66 388.65 115.10 409.07 88.56 429.50 C 83.98 433.31 77.34 434.60 71.82 432.17 C 65.85 429.74 61.80 423.47 62.01 417.02 C 61.96 397.17 62.03 377.32 61.98 357.46 C 53.98 357.43 45.98 357.53 37.99 357.44 C 26.53 357.26 15.41 351.56 8.36 342.57 C 3.62 336.73 1.05 329.44 0.00 322.05 L 0.00 54.05 C 0.95 45.86 4.05 37.82 9.59 31.63 M 34.71 51.70 C 32.76 53.15 31.87 55.62 32.00 58.00 C 32.01 144.68 31.98 231.36 32.02 318.04 C 31.73 321.93 35.13 325.63 39.07 325.44 C 52.09 325.54 65.11 325.39 78.12 325.50 C 86.40 325.36 93.86 332.67 93.95 340.93 C 94.06 355.59 93.95 370.26 94.00 384.92 C 118.33 366.28 142.57 347.52 166.90 328.87 C 170.03 326.41 174.04 325.36 177.99 325.47 C 246.97 325.45 315.96 325.50 384.95 325.45 C 388.91 325.65 392.32 321.94 392.05 318.04 C 392.08 231.36 392.06 144.68 392.06 58.01 C 392.18 55.62 391.29 53.14 389.33 51.69 C 386.71 49.54 383.13 50.34 380.02 50.19 C 268.04 50.21 156.05 50.21 44.07 50.19 C 40.95 50.35 37.33 49.53 34.71 51.70 M 424.06 189.07 C 424.05 232.04 424.08 275.01 424.05 317.98 C 424.19 328.49 419.90 338.97 412.36 346.30 C 405.17 353.45 395.08 357.53 384.95 357.46 C 323.38 357.47 261.80 357.46 200.23 357.47 C 200.25 371.31 200.15 385.16 200.26 399.00 C 200.12 400.47 201.51 401.61 202.95 401.38 C 257.63 401.43 312.32 401.38 367.00 401.40 C 371.75 401.16 376.30 403.09 379.84 406.17 C 396.78 419.22 413.73 432.26 430.70 445.28 C 430.72 435.87 430.64 426.45 430.73 417.04 C 430.70 409.11 437.47 401.95 445.38 401.50 C 456.24 401.19 467.11 401.61 477.97 401.30 C 479.69 401.41 480.12 399.34 479.99 398.03 C 480.02 329.68 479.98 261.33 480.01 192.98 C 480.07 191.53 479.97 189.15 477.98 189.16 C 460.02 188.94 442.04 189.13 424.06 189.07 Z" />
<path fill="#000000" stroke="#000000" stroke-width="0.09375" opacity="1.00" d=" M 205.22 89.34 C 221.14 87.97 237.58 93.84 248.91 105.15 C 265.90 121.65 268.59 151.12 253.92 169.94 C 245.85 180.90 233.84 188.13 225.70 199.01 C 221.34 204.69 219.43 211.91 219.53 219.01 C 219.67 224.58 216.69 230.03 211.98 232.97 C 205.30 237.39 195.59 235.54 190.87 229.12 C 186.63 224.07 187.43 217.08 187.96 210.99 C 189.17 198.10 194.65 185.78 203.04 175.96 C 210.37 166.99 220.01 160.27 227.66 151.61 C 232.04 146.85 232.18 139.64 230.16 133.81 C 226.06 123.45 212.71 118.68 202.58 122.49 C 197.37 124.41 194.16 129.61 193.27 134.90 C 192.35 139.24 193.23 143.96 191.12 148.03 C 188.35 153.99 181.67 157.93 175.09 157.16 C 167.78 156.56 161.40 150.28 160.77 142.96 C 159.95 125.52 167.22 106.91 182.26 97.18 C 189.07 92.64 197.08 90.04 205.22 89.34 Z" />
<path fill="#000000" stroke="#000000" stroke-width="0.09375" opacity="1.00" d=" M 197.25 261.38 C 203.26 259.41 210.62 260.19 215.27 264.79 C 221.37 270.22 222.07 280.44 216.66 286.58 C 209.75 295.33 194.16 294.18 188.80 284.31 C 183.81 276.15 188.19 264.36 197.25 261.38 Z" />
</g>
</svg>
