<?xml version="1.0" standalone="no"?>
<!DOCTYPE svg PUBLIC "-//W3C//DTD SVG 20010904//EN"
 "http://www.w3.org/TR/2001/REC-SVG-20010904/DTD/svg10.dtd">
<svg version="1.0" xmlns="http://www.w3.org/2000/svg"
 width="512.000000pt" height="512.000000pt" viewBox="0 0 512.000000 512.000000"
 preserveAspectRatio="xMidYMid meet">

<g transform="translate(0.000000,512.000000) scale(0.100000,-0.100000)"
fill="#000000" stroke="none">
<path d="M2425 5066 c-122 -39 -194 -97 -285 -231 -77 -113 -126 -154 -214
-180 -72 -22 -118 -19 -235 15 -223 64 -388 26 -531 -125 -28 -31 -66 -86 -83
-123 l-32 -67 0 -205 c0 -228 -4 -245 -71 -326 -28 -35 -62 -57 -170 -109
-104 -51 -146 -78 -187 -118 -90 -91 -137 -207 -137 -337 1 -146 40 -230 171
-365 127 -132 144 -164 144 -280 0 -88 -1 -93 -52 -200 -76 -160 -89 -240 -58
-358 31 -118 89 -208 178 -273 75 -56 153 -84 255 -94 45 -4 85 -9 87 -12 3
-3 -101 -254 -230 -558 -129 -304 -235 -565 -235 -580 0 -30 37 -70 65 -70 11
0 162 48 338 106 175 58 323 104 328 102 6 -2 75 -137 153 -301 78 -163 149
-306 159 -317 24 -28 78 -27 104 3 11 12 116 249 233 527 122 291 222 513 234
524 11 10 43 30 71 44 42 22 63 26 135 26 72 0 92 -4 135 -26 28 -15 58 -33
68 -40 10 -8 117 -245 236 -527 120 -282 225 -521 234 -532 23 -26 78 -25 103
2 10 11 83 154 161 317 78 164 148 298 155 300 7 1 155 -45 328 -103 173 -58
324 -105 336 -105 28 0 64 40 64 72 0 14 -106 274 -235 578 -129 304 -233 555
-230 558 2 3 42 8 87 12 188 18 322 110 399 274 70 149 64 267 -23 449 -52
110 -53 114 -53 202 0 116 17 148 144 280 131 135 170 219 171 365 0 130 -47
246 -137 337 -41 40 -83 67 -187 118 -151 73 -191 110 -228 207 -18 48 -19 66
-13 213 8 178 0 231 -53 328 -30 55 -135 158 -190 186 -118 60 -245 67 -403
21 -117 -34 -163 -37 -235 -15 -88 26 -137 67 -214 180 -123 181 -234 246
-422 244 -51 0 -111 -6 -133 -13z m237 -146 c69 -19 125 -70 202 -180 81 -118
156 -183 253 -221 88 -35 229 -33 344 4 158 50 268 32 369 -60 24 -21 56 -65
72 -98 l29 -60 -6 -175 c-7 -163 -6 -179 15 -240 42 -127 127 -224 243 -279
34 -16 87 -40 118 -55 71 -33 125 -86 158 -156 22 -47 26 -69 26 -145 0 -80
-3 -96 -29 -142 -16 -29 -64 -85 -107 -126 -128 -122 -179 -228 -179 -371 1
-98 13 -145 73 -266 49 -99 51 -109 52 -185 0 -68 -4 -89 -28 -137 -15 -31
-46 -74 -68 -97 -64 -63 -110 -80 -261 -96 -155 -15 -221 -37 -307 -100 -95
-70 -146 -157 -186 -316 -28 -113 -58 -172 -107 -215 -49 -41 -132 -75 -197
-81 -87 -8 -150 15 -264 96 -136 97 -185 115 -317 115 -132 0 -181 -18 -317
-115 -114 -81 -177 -104 -264 -96 -65 6 -148 40 -197 81 -49 43 -79 102 -107
215 -40 159 -95 251 -192 321 -82 59 -150 80 -301 95 -151 16 -197 33 -261 96
-22 23 -53 66 -68 97 -24 48 -28 69 -28 137 1 76 3 86 52 185 60 121 72 168
73 266 0 143 -51 249 -179 371 -43 41 -91 97 -107 126 -26 47 -29 61 -29 147
0 83 3 101 27 145 35 67 90 120 157 151 31 15 83 39 117 55 116 55 201 152
245 280 20 60 21 76 15 239 l-7 175 29 60 c16 33 48 77 72 98 101 92 211 110
369 60 115 -37 256 -39 344 -4 96 38 172 103 251 217 85 122 129 161 205 185
38 11 160 10 203 -1z m-1223 -3345 c50 -55 64 -85 91 -201 28 -118 64 -188
135 -260 101 -102 241 -153 386 -141 40 3 69 2 67 -3 -17 -50 -284 -670 -288
-669 -3 0 -59 113 -124 252 -66 139 -129 262 -140 275 -11 12 -31 22 -45 22
-15 0 -148 -40 -296 -90 -148 -49 -270 -88 -272 -86 -2 1 83 205 188 452 105
247 197 464 204 482 17 40 31 35 94 -33z m2530 -424 c111 -261 200 -476 198
-477 -2 -2 -124 37 -272 86 -148 50 -281 90 -296 90 -14 0 -34 -10 -45 -22
-11 -13 -74 -136 -140 -275 -65 -139 -121 -252 -124 -252 -4 -1 -271 620 -288
669 -2 6 26 7 71 4 141 -12 282 38 384 138 58 56 108 157 133 264 12 49 30
108 41 131 23 47 117 140 129 127 4 -5 99 -222 209 -483z"/>
<path d="M2375 4275 c-187 -29 -359 -96 -515 -200 -267 -177 -449 -441 -532
-770 -28 -115 -35 -348 -14 -480 41 -248 155 -477 328 -661 271 -286 630 -423
1025 -392 310 24 590 159 809 391 174 184 289 415 330 662 21 131 14 364 -15
480 -86 348 -276 611 -576 799 -238 150 -559 216 -840 171z m410 -159 c219
-48 387 -138 548 -295 211 -206 323 -457 334 -751 10 -254 -49 -460 -189 -667
-352 -523 -1081 -644 -1586 -263 -199 150 -344 365 -409 608 -24 87 -27 115
-27 277 0 164 2 189 26 278 31 112 96 255 158 348 97 144 273 297 435 377 74
36 200 78 280 91 33 6 71 13 85 15 50 9 277 -3 345 -18z"/>
<path d="M2991 3649 c-51 -20 -92 -63 -328 -338 -135 -157 -248 -287 -252
-287 -3 -1 -51 48 -107 110 -116 128 -145 150 -218 167 -101 22 -216 -35 -269
-135 -30 -57 -30 -165 0 -221 12 -22 115 -143 230 -270 241 -267 272 -290 378
-282 83 6 132 34 208 119 197 220 651 759 670 793 30 56 30 164 0 221 -25 47
-82 101 -129 120 -38 16 -147 18 -183 3z m152 -159 c29 -23 43 -73 30 -107 -9
-25 -677 -808 -707 -829 -24 -16 -69 -18 -95 -4 -22 11 -400 431 -418 463 -21
37 -15 74 16 109 24 27 36 33 71 33 46 0 35 9 243 -218 108 -118 132 -129 180
-84 14 12 145 162 291 334 146 171 272 314 279 316 30 13 86 6 110 -13z"/>
</g>
</svg>
