<?xml version="1.0" encoding="UTF-8" ?>
<!DOCTYPE svg PUBLIC "-//W3C//DTD SVG 1.1//EN" "http://www.w3.org/Graphics/SVG/1.1/DTD/svg11.dtd">
<svg width="512pt" height="512pt" viewBox="0 0 512 512" version="1.1" xmlns="http://www.w3.org/2000/svg">
<g id="#000000ff">
<path fill="#000000" stroke="#000000" stroke-width="0.09375" opacity="1.00" d=" M 249.12 39.22 C 264.08 37.83 279.46 41.03 292.54 48.46 C 298.65 51.84 304.04 56.31 309.49 60.63 C 350.11 92.67 390.70 124.73 431.30 156.79 C 437.55 161.83 444.20 166.47 449.61 172.47 C 462.18 186.07 469.37 204.48 469.32 223.01 C 469.35 276.32 469.32 329.64 469.33 382.95 C 469.27 391.38 469.72 399.88 468.09 408.21 C 464.72 426.95 453.77 444.15 438.31 455.23 C 425.56 464.53 409.78 469.47 394.02 469.33 C 301.67 469.33 209.32 469.35 116.98 469.32 C 98.44 469.29 80.05 462.02 66.53 449.35 C 51.51 435.55 42.63 415.38 42.68 394.98 C 42.66 337.66 42.66 280.33 42.68 223.01 C 42.54 200.64 53.17 178.54 70.74 164.70 C 116.54 128.51 162.38 92.35 208.19 56.17 C 219.77 46.65 234.16 40.56 249.12 39.22 M 251.33 60.43 C 244.37 61.05 237.52 63.04 231.33 66.29 C 225.95 69.03 221.35 72.99 216.62 76.70 C 173.78 110.51 130.95 144.34 88.10 178.15 C 76.38 186.31 67.53 198.76 64.96 212.93 C 63.62 219.53 64.08 226.30 64.00 232.99 C 64.04 287.34 63.93 341.68 64.06 396.03 C 64.29 417.48 78.95 437.71 99.17 444.77 C 108.98 448.61 119.65 448.00 129.97 448.00 C 217.67 448.00 305.38 448.00 393.08 448.00 C 401.04 448.09 409.06 446.65 416.35 443.36 C 435.13 435.22 448.07 415.49 447.97 395.00 C 448.04 340.01 447.98 285.02 448.00 230.03 C 447.98 225.64 448.14 221.24 447.63 216.88 C 446.34 205.58 441.32 194.74 433.50 186.48 C 429.81 182.48 425.33 179.34 421.12 175.93 C 377.13 141.21 333.17 106.45 289.15 71.77 C 278.61 63.33 264.78 59.21 251.33 60.43 Z" />
<path fill="#000000" stroke="#000000" stroke-width="0.09375" opacity="1.00" d=" M 200.46 373.59 C 201.95 373.31 203.46 373.33 204.97 373.32 C 239.68 373.37 274.38 373.29 309.09 373.35 C 315.27 373.05 320.76 378.96 319.91 385.12 C 319.46 390.49 314.43 394.87 309.05 394.64 C 273.69 394.68 238.33 394.68 202.97 394.65 C 197.57 394.88 192.52 390.48 192.08 385.09 C 191.41 379.85 195.28 374.56 200.46 373.59 Z" />
</g>
</svg>
