<?xml version="1.0" encoding="UTF-8" ?>
<!DOCTYPE svg PUBLIC "-//W3C//DTD SVG 1.1//EN" "http://www.w3.org/Graphics/SVG/1.1/DTD/svg11.dtd">
<svg width="512pt" height="512pt" viewBox="0 0 512 512" version="1.1" xmlns="http://www.w3.org/2000/svg">
<g id="#000000ff">
<path fill="#000000" stroke="#000000" stroke-width="0.09375" opacity="1.00" d=" M 0.00 38.64 C 0.95 30.40 8.65 23.64 16.99 24.13 C 141.34 24.15 265.69 24.10 390.04 24.16 C 398.92 23.95 406.71 32.16 406.19 41.01 C 406.20 132.35 406.19 223.69 406.20 315.03 C 406.16 318.70 406.44 322.40 405.80 326.04 C 404.33 333.24 397.41 338.90 390.03 338.78 C 317.69 338.83 245.35 338.79 173.01 338.80 C 169.44 338.88 165.79 338.44 162.28 339.24 C 159.15 340.53 156.71 342.98 154.01 344.95 C 125.00 367.27 96.02 389.61 66.96 411.87 C 66.92 390.55 66.99 369.23 66.93 347.92 C 67.26 343.02 62.96 338.51 58.02 338.83 C 44.00 338.72 29.97 338.88 15.95 338.77 C 8.01 338.80 1.04 332.20 0.00 324.44 L 0.00 38.64 M 196.28 79.36 C 188.34 80.03 180.52 82.51 173.83 86.85 C 161.43 94.60 154.14 108.68 152.49 122.96 C 151.86 128.58 151.00 135.19 155.22 139.71 C 160.21 145.71 170.53 145.40 175.11 139.07 C 178.70 134.84 177.50 129.01 178.51 123.97 C 179.64 117.05 183.62 110.19 190.26 107.30 C 201.02 102.58 214.53 105.88 222.37 114.49 C 227.81 120.41 229.32 129.08 227.77 136.79 C 226.44 142.05 222.67 146.19 218.90 149.90 C 210.89 157.58 202.09 164.54 195.21 173.32 C 185.36 185.55 180.27 201.44 181.14 217.11 C 181.60 221.77 184.92 225.96 189.27 227.62 C 195.00 229.97 202.13 227.45 205.13 222.04 C 207.38 218.41 206.73 214.00 207.17 209.95 C 207.80 202.03 211.18 194.48 216.31 188.45 C 225.00 178.11 236.51 170.52 244.73 159.74 C 259.43 141.29 256.82 112.20 240.35 95.68 C 229.03 84.08 212.40 78.04 196.28 79.36 M 190.40 264.50 C 182.48 265.86 177.65 275.49 181.35 282.65 C 185.21 291.43 198.70 292.72 204.67 285.52 C 208.81 280.81 208.70 273.10 204.44 268.50 C 201.04 264.52 195.33 263.54 190.40 264.50 Z" />
<path fill="#000000" stroke="#000000" stroke-width="0.09375" opacity="1.00" d=" M 434.30 184.88 C 456.55 184.88 478.80 184.81 501.06 184.91 C 506.56 184.82 511.18 189.39 512.00 194.68 L 512.00 421.65 C 511.23 426.76 506.93 431.24 501.63 431.45 C 490.10 431.74 478.54 431.33 467.01 431.61 C 462.59 431.60 458.75 435.57 458.82 439.97 C 458.66 455.92 458.81 471.89 458.75 487.84 C 436.43 470.63 414.07 453.47 391.73 436.27 C 388.86 434.07 385.92 431.24 382.00 431.55 C 322.63 431.50 263.26 431.58 203.89 431.51 C 197.73 431.77 192.20 426.24 192.50 420.07 C 192.45 402.32 192.48 384.56 192.49 366.80 C 261.68 366.79 330.86 366.81 400.05 366.80 C 409.19 366.98 418.32 363.30 424.69 356.73 C 430.87 350.49 434.35 341.76 434.28 332.99 C 434.31 283.62 434.28 234.25 434.30 184.88 Z" />
</g>
</svg>
