<?xml version="1.0" encoding="UTF-8" ?>
<!DOCTYPE svg PUBLIC "-//W3C//DTD SVG 1.1//EN" "http://www.w3.org/Graphics/SVG/1.1/DTD/svg11.dtd">
<svg width="512pt" height="512pt" viewBox="0 0 512 512" version="1.1" xmlns="http://www.w3.org/2000/svg">
<g id="#000000ff">
<path fill="#000000" stroke="#000000" stroke-width="0.09375" opacity="1.00" d=" M 242.55 46.79 C 262.71 42.97 284.17 48.14 300.66 60.27 C 346.20 91.47 391.79 122.59 437.31 153.81 C 456.82 167.20 469.12 190.34 469.30 214.00 C 469.38 273.68 469.31 333.36 469.34 393.04 C 469.96 416.76 458.49 440.35 439.39 454.43 C 426.45 464.23 410.23 469.48 394.01 469.33 C 301.68 469.33 209.34 469.35 117.00 469.32 C 97.30 469.31 77.77 461.07 64.04 446.93 C 50.52 433.28 42.65 414.23 42.68 395.00 C 42.65 341.32 42.67 287.64 42.67 233.96 C 42.91 221.99 41.73 209.81 44.65 198.06 C 48.76 180.25 59.71 164.14 74.77 153.77 C 120.88 122.20 167.02 90.66 213.14 59.09 C 221.93 52.98 232.01 48.72 242.55 46.79 M 200.46 373.59 C 193.82 374.74 189.89 382.93 193.19 388.83 C 195.28 393.22 200.36 395.15 205.00 394.68 C 239.67 394.63 274.34 394.70 309.01 394.65 C 314.81 394.93 320.10 389.83 319.97 384.01 C 320.13 378.21 314.85 373.07 309.05 373.35 C 275.03 373.30 241.01 373.36 206.99 373.32 C 204.81 373.34 202.61 373.22 200.46 373.59 Z" />
</g>
</svg>
